<svg width="242" height="218" viewBox="0 0 242 218" fill="none" xmlns="http://www.w3.org/2000/svg">
<path d="M6.73669 111.665V15.3277C6.73985 13.5234 7.30426 11.7608 8.35821 10.2637C9.41216 8.7667 10.9081 7.60289 12.6558 6.9202C14.4036 6.23751 16.3242 6.06677 18.1738 6.42966C20.0233 6.79256 21.7182 7.67271 23.043 8.95827L49.1093 33.8673C69.9337 19.229 95.1489 11.4099 121 11.5743C146.851 11.4099 172.066 19.229 192.891 33.8673L218.957 8.95827C220.282 7.67271 221.977 6.79256 223.826 6.42966C225.676 6.06677 227.596 6.23751 229.344 6.9202C231.092 7.60289 232.588 8.7667 233.642 10.2637C234.696 11.7608 235.26 13.5234 235.263 15.3277V111.665C235.263 166.943 184.083 211.756 121 211.756C57.9171 211.756 6.73669 166.943 6.73669 111.665Z" stroke="#1DD2AF" stroke-width="12" stroke-linecap="round" stroke-linejoin="round"/>
</svg>
